<?xml version="1.0" standalone="no"?>
<!DOCTYPE svg PUBLIC "-//W3C//DTD SVG 20010904//EN"
 "http://www.w3.org/TR/2001/REC-SVG-20010904/DTD/svg10.dtd">
<svg version="1.0" xmlns="http://www.w3.org/2000/svg"
 width="260.000000pt" height="260.000000pt" viewBox="0 0 260.000000 260.000000"
 preserveAspectRatio="xMidYMid meet">
<metadata>
Created by potrace 1.11, written by Peter Selinger 2001-2013
</metadata>
<g transform="translate(0.000000,260.000000) scale(0.100000,-0.100000)"
fill="#000000" stroke="none">
<path d="M110 2185 c0 -2 22 -64 49 -137 27 -73 76 -207 109 -298 33 -91 100
-274 149 -408 l88 -242 159 2 160 3 17 50 c10 28 32 88 49 135 17 47 44 121
59 165 16 44 40 109 54 145 13 36 50 137 82 225 31 88 60 169 65 180 5 11 17
45 28 75 11 30 25 67 31 83 l11 27 -144 0 c-128 0 -145 -2 -151 -17 -4 -10
-51 -146 -105 -303 -120 -349 -149 -432 -153 -436 -2 -2 -17 38 -35 89 -17 50
-70 205 -117 342 -48 138 -92 266 -98 285 l-12 35 -148 3 c-81 1 -147 0 -147
-3z"/>
<path d="M1380 1645 l0 -545 128 0 129 0 0 368 c1 202 2 369 2 371 1 2 104
-162 229 -365 l228 -369 137 -3 137 -3 0 546 0 546 -127 -3 -128 -3 0 -307 c0
-168 -2 -305 -5 -303 -3 2 -93 141 -200 309 l-195 306 -167 0 -168 0 0 -545z"/>
<path d="M110 710 l0 -300 1130 0 1130 0 0 300 0 300 -1130 0 -1130 0 0 -300z"/>
</g>
</svg>
